<svg xmlns="http://www.w3.org/2000/svg" viewBox="0 0 512 512"><style>.a{fill:#CCC;}.b{fill:#E6E6E6;}</style><path d="M478.9 120.6v240.2H33.2V120.6c0-17.4 14.1-31.5 31.5-31.5h382.6C464.7 89 478.9 103.1 478.9 120.6z" class="a"/><path d="M478.9 120.6v240.2H216l76.2-271.7h155.1C464.7 89 478.9 103.1 478.9 120.6z" class="b"/><rect x="33.2" y="128.5" width="445.7" height="232.3" fill="#9BD7F4"/><path d="M503.4 360.8v24.4c0 20.6-16.7 37.3-37.3 37.3H45.9c-20.6 0-37.3-16.7-37.3-37.3v-24.4H503.4z" class="a"/><polygon points="478.9 128.5 478.9 360.8 216 360.8 281.1 128.5 " fill="#C8EDFC"/><path d="M503.4 360.8v24.4c0 20.6-16.7 37.3-37.3 37.3h-217l17.3-61.7H503.4z" class="b"/><path d="M294.1 391.6h-76.2c-12.1 0-21.9-9.8-21.9-21.9v-9h120v9C316 381.8 306.2 391.6 294.1 391.6z" fill="#999"/><path d="M503.4 352.4h-16V119.5c0-15.6-9.3-29.7-23.7-35.8 -4.4-1.8-9.4 0.2-11.2 4.6 -1.8 4.4 0.2 9.4 4.6 11.2 8 3.4 13.2 11.2 13.2 20v232.9h-35.3c-4.7 0-8.6 3.8-8.6 8.6 0 4.7 3.8 8.6 8.6 8.6h59.9v15.8c0 15.8-12.9 28.7-28.7 28.7H45.9c-15.8 0-28.7-12.9-28.7-28.7v-15.8h170.3v0.4c0 16.8 13.7 30.4 30.4 30.4h76.2c16.8 0 30.4-13.7 30.4-30.4v-0.4h80.1c4.7 0 8.6-3.8 8.6-8.6s-3.8-8.6-8.6-8.6H41.7V209.3c0-4.7-3.8-8.6-8.6-8.6s-8.6 3.8-8.6 8.6v143.2H8.6c-4.7 0-8.6 3.8-8.6 8.6v24.4c0 25.3 20.6 45.9 45.9 45.9h420.2c25.3 0 45.9-20.6 45.9-45.9v-24.4C512 356.3 508.2 352.4 503.4 352.4zM307.4 369.6v0.4c0 7.3-6 13.3-13.3 13.3h-76.2c-7.3 0-13.3-6-13.3-13.3v-0.4H307.4z"/><path d="M33.2 183.6c4.7 0 8.6-3.8 8.6-8.6v-55.5c0-12 9.7-21.7 21.7-21.7h362.6c4.7 0 8.6-3.8 8.6-8.6 0-4.7-3.8-8.6-8.6-8.6H63.4c-21.4 0-38.8 17.4-38.8 38.8v55.5C24.6 179.7 28.4 183.6 33.2 183.6z"/><path d="M178.3 195.1v83.4c0 17.6 14.4 32 32 32s32-14.4 32-32v-83.4c0-17.6-14.4-32-32-32S178.3 177.4 178.3 195.1zM225.2 195.1v83.4c0 8.2-6.7 14.9-14.9 14.9 -8.2 0-14.9-6.7-14.9-14.9v-83.4c0-8.2 6.7-14.9 14.9-14.9C218.5 180.2 225.2 186.9 225.2 195.1z"/><path d="M415.3 180.2c4.7 0 8.6-3.8 8.6-8.6s-3.8-8.6-8.6-8.6h-46.9c-4.7 0-8.6 3.8-8.6 8.6v130.3c0 4.7 3.8 8.6 8.6 8.6h46.9c4.7 0 8.6-3.8 8.6-8.6 0-4.7-3.8-8.6-8.6-8.6h-38.3v-47.8h19c4.7 0 8.6-3.8 8.6-8.6 0-4.7-3.8-8.6-8.6-8.6h-19v-48.2H415.3z"/><path d="M120.1 180.2c8.2 0 14.9 6.7 14.9 14.9 0 4.7 3.8 8.6 8.6 8.6s8.6-3.8 8.6-8.6c0-17.6-14.4-32-32-32s-32 14.4-32 32v83.4c0 17.6 14.4 32 32 32s32-14.4 32-32c0-4.7-3.8-8.6-8.6-8.6 -4.7 0-8.6 3.8-8.6 8.6 0 8.2-6.7 14.9-14.9 14.9s-14.9-6.7-14.9-14.9v-83.4C105.2 186.9 111.9 180.2 120.1 180.2z"/><path d="M277.1 204.3c-4.7 0-8.6 3.8-8.6 8.6v89c0 4.7 3.8 8.6 8.6 8.6h23.4c17.6 0 32-14.4 32-32v-83.4c0-17.6-14.4-32-32-32h-23.4c-4.7 0-8.6 3.8-8.6 8.6v15c0 4.7 3.8 8.6 8.6 8.6 4.7 0 8.6-3.8 8.6-8.6v-6.4h14.9c8.2 0 14.9 6.7 14.9 14.9v83.4c0 8.2-6.7 14.9-14.9 14.9h-14.9v-80.5C285.7 208.1 281.9 204.3 277.1 204.3z"/><path d="M456 128.8c0-4.7-3.8-8.6-8.6-8.6H64.6c-4.7 0-8.6 3.8-8.6 8.6 0 4.7 3.8 8.6 8.6 8.6h382.9C452.2 137.3 456 133.5 456 128.8z"/></svg>